<svg xmlns="http://www.w3.org/2000/svg" xmlns:xlink="http://www.w3.org/1999/xlink" width="17" height="17" viewBox="0 0 17 17">
    <defs>
        <path id="ukrqr6jcca" d="M12 10c.033 0 .065.013.088.037l.912.977L15.5 11c.276 0 .5.224.5.5v3.234c0 .276-.224.5-.5.5h-5c-.276 0-.5-.224-.5-.5V10.5c0-.276.224-.5.5-.5zm.444-10C13.3 0 14 .7 14 1.556v8.452l-.567.004-.613-.657C12.585 9.119 12.299 9 12 9h-1.5l-.054.001L8.944 7l-2.722 3.5-1.944-2.333-2.722 3.5H9V14H1.556c-.808 0-1.478-.624-1.55-1.415L0 12.445V1.554C0 .7.7 0 1.556 0zm-1.312 3.106c-.726 0-1.313.588-1.313 1.313s.587 1.312 1.313 1.312c.725 0 1.312-.587 1.312-1.312 0-.725-.587-1.313-1.312-1.313z"/>
    </defs>
    <g fill="none" fill-rule="evenodd">
        <g>
            <g>
                <g>
                    <g transform="translate(-1293 -2155) translate(1281.072 2139.948) translate(0 7.176) translate(12 8)">
                        <mask id="ylv8po31ob" fill="#fff">
                            <use xlink:href="#ukrqr6jcca"/>
                        </mask>
                        <use fill="#000" xlink:href="#ukrqr6jcca"/>
                        <g fill="#9FA7BB" mask="url(#ylv8po31ob)">
                            <path d="M0 0H23V23H0z"/>
                        </g>
                    </g>
                </g>
            </g>
        </g>
    </g>
</svg>
